<svg width="28" height="28" viewBox="0 0 28 28" fill="none" xmlns="http://www.w3.org/2000/svg">
<path fill-rule="evenodd" clip-rule="evenodd" d="M5.25 8.16683C5.25 7.84466 5.51117 7.5835 5.83333 7.5835H22.1667C22.4888 7.5835 22.75 7.84466 22.75 8.16683V22.1668C22.75 22.489 22.4888 22.7502 22.1667 22.7502H5.83333C5.51117 22.7502 5.25 22.489 5.25 22.1668V8.16683ZM6.41667 8.75016V21.5835H21.5833V8.75016H6.41667Z" fill="white"/>
<path fill-rule="evenodd" clip-rule="evenodd" d="M14 4.08317C11.7448 4.08317 9.91667 5.91134 9.91667 8.1665C9.91667 8.48867 9.6555 8.74984 9.33333 8.74984C9.01117 8.74984 8.75 8.48867 8.75 8.1665C8.75 5.26701 11.1005 2.9165 14 2.9165C16.8995 2.9165 19.25 5.26701 19.25 8.1665C19.25 8.48867 18.9888 8.74984 18.6667 8.74984C18.3445 8.74984 18.0833 8.48867 18.0833 8.1665C18.0833 5.91134 16.2552 4.08317 14 4.08317Z" fill="white"/>
</svg>
