<svg width="506" height="415" viewBox="0 0 506 415" fill="none" xmlns="http://www.w3.org/2000/svg">
<path opacity="0.3" fill-rule="evenodd" clip-rule="evenodd" d="M108.163 413.887C108.012 413.559 107.862 413.23 107.713 412.902L105.892 413.727C106.042 414.06 106.194 414.392 106.346 414.724L108.163 413.887ZM433.091 73.0956L432.305 74.9351C431.86 74.7547 431.414 74.5756 430.968 74.3977L431.709 72.5399C432.17 72.7238 432.631 72.909 433.091 73.0956ZM233.358 78.9516L232.532 77.13C232.076 77.3372 231.619 77.5457 231.163 77.7558C230.925 77.8653 230.687 77.9752 230.45 78.0853C230.232 78.1864 230.014 78.2878 229.797 78.3894L230.644 80.2013C231.095 79.9905 231.547 79.7809 231.999 79.5725C232.452 79.3641 232.905 79.1571 233.358 78.9516ZM226.166 82.3475L225.284 80.5524C224.387 80.9927 223.495 81.4377 222.606 81.8872L223.508 83.672C224.39 83.226 225.276 82.7844 226.166 82.3475ZM219.115 85.947L218.179 84.18C217.293 84.6497 216.41 85.1241 215.532 85.603L216.49 87.3589C217.361 86.8837 218.236 86.413 219.115 85.947ZM212.165 89.7725L211.173 88.0356C210.308 88.5297 209.446 89.0282 208.588 89.5312L209.6 91.2564C210.451 90.7573 211.306 90.2627 212.165 89.7725ZM205.342 93.81L204.297 92.105C203.444 92.6278 202.596 93.1551 201.751 93.6868L202.817 95.3793C203.655 94.8519 204.497 94.3287 205.342 93.81ZM198.66 98.0532L197.561 96.3818C196.724 96.9321 195.891 97.4868 195.062 98.0458L196.18 99.7041C197.003 99.1494 197.829 98.5991 198.66 98.0532ZM192.097 102.516L190.946 100.881C190.13 101.455 189.318 102.033 188.51 102.616L189.68 104.238C190.481 103.66 191.287 103.086 192.097 102.516ZM185.689 107.176L184.488 105.577C183.688 106.178 182.892 106.784 182.101 107.394L183.321 108.978C184.106 108.373 184.896 107.772 185.689 107.176ZM179.431 112.037L178.18 110.477C177.4 111.102 176.626 111.731 175.855 112.364L177.125 113.909C177.89 113.281 178.658 112.657 179.431 112.037ZM173.325 117.097L172.024 115.578C171.266 116.227 170.511 116.88 169.761 117.538L171.079 119.042C171.824 118.39 172.572 117.741 173.325 117.097ZM167.389 122.342L166.041 120.864C165.302 121.539 164.567 122.217 163.837 122.899L165.202 124.361C165.927 123.684 166.656 123.011 167.389 122.342ZM161.617 127.777L160.223 126.343C159.508 127.038 158.797 127.737 158.091 128.44L159.501 129.858C160.202 129.16 160.907 128.467 161.617 127.777ZM156.02 133.392L154.582 132.002C153.888 132.721 153.198 133.443 152.513 134.169L153.968 135.542C154.648 134.821 155.332 134.105 156.02 133.392ZM150.608 139.176L149.127 137.833C148.455 138.574 147.787 139.319 147.125 140.067L148.623 141.393C149.28 140.65 149.942 139.911 150.608 139.176ZM145.376 145.135L143.853 143.839C143.206 144.599 142.564 145.363 141.927 146.13L143.466 147.408C144.098 146.647 144.735 145.889 145.376 145.135ZM140.337 151.253L138.773 150.006C138.15 150.787 137.532 151.572 136.919 152.36L138.497 153.588C139.106 152.807 139.719 152.028 140.337 151.253ZM135.496 157.524L133.894 156.327C133.295 157.128 132.701 157.932 132.113 158.74L133.729 159.918C134.313 159.117 134.902 158.319 135.496 157.524ZM130.849 163.951L129.21 162.805C128.638 163.623 128.071 164.444 127.509 165.269L129.162 166.395C129.719 165.577 130.282 164.763 130.849 163.951ZM126.41 170.517L124.736 169.423C124.189 170.259 123.648 171.099 123.111 171.941L124.798 173.015C125.331 172.18 125.868 171.347 126.41 170.517ZM122.18 177.218L120.472 176.177C119.952 177.031 119.437 177.887 118.927 178.746L120.647 179.767C121.153 178.914 121.664 178.065 122.18 177.218ZM118.159 184.052L116.42 183.065C115.927 183.934 115.44 184.805 114.957 185.679L116.708 186.646C117.187 185.778 117.671 184.914 118.159 184.052ZM114.356 191.007L112.587 190.075C112.121 190.959 111.661 191.845 111.206 192.734L112.986 193.645C113.438 192.763 113.895 191.884 114.356 191.007ZM110.773 198.077L108.975 197.2C108.537 198.098 108.105 198.999 107.678 199.902L109.486 200.757C109.91 199.861 110.339 198.968 110.773 198.077ZM107.411 205.256L105.587 204.437C105.178 205.348 104.774 206.261 104.375 207.177L106.209 207.975C106.605 207.066 107.005 206.16 107.411 205.256ZM104.276 212.537L102.427 211.774C102.047 212.698 101.671 213.624 101.301 214.551L103.159 215.292C103.526 214.371 103.899 213.453 104.276 212.537ZM101.37 219.912L99.4978 219.208C99.1462 220.142 98.8001 221.079 98.4594 222.018L100.339 222.7C100.677 221.769 101.021 220.839 101.37 219.912ZM98.6951 227.374L96.802 226.728C96.4798 227.674 96.163 228.621 95.8518 229.57L97.7522 230.193C98.061 229.252 98.3753 228.312 98.6951 227.374ZM96.2546 234.916L94.3423 234.33C94.0498 235.285 93.7628 236.241 93.4814 237.199L95.4004 237.763C95.6796 236.812 95.9643 235.863 96.2546 234.916ZM94.0507 242.531L92.1211 242.005C91.8585 242.968 91.6015 243.933 91.3502 244.9L93.2858 245.403C93.5352 244.444 93.7902 243.487 94.0507 242.531ZM92.0862 250.21L90.1411 249.744C89.9087 250.716 89.682 251.688 89.461 252.663L91.4114 253.105C91.6307 252.138 91.8557 251.173 92.0862 250.21ZM90.3625 257.948L88.4038 257.543C88.202 258.521 88.0059 259.5 87.8156 260.48L89.7789 260.861C89.9678 259.889 90.1623 258.918 90.3625 257.948ZM88.882 265.735L86.9116 265.392C86.7404 266.376 86.575 267.362 86.4154 268.348L88.3897 268.668C88.5481 267.689 88.7122 266.711 88.882 265.735ZM87.6465 273.563L85.6663 273.283C85.5261 274.271 85.3917 275.261 85.2631 276.252L87.2465 276.51C87.374 275.526 87.5074 274.544 87.6465 273.563ZM86.6569 281.43L84.6688 281.212C84.5599 282.203 84.4567 283.196 84.3594 284.19L86.3498 284.385C86.4464 283.399 86.5488 282.414 86.6569 281.43ZM83.7053 292.156C83.7714 291.158 83.8435 290.161 83.9213 289.165L85.9152 289.321C85.838 290.309 85.7666 291.298 85.7009 292.289L83.7053 292.156ZM85.4223 297.23L83.4244 297.137C83.378 298.135 83.3375 299.133 83.3028 300.131L85.3016 300.201C85.336 299.21 85.3762 298.22 85.4223 297.23ZM85.1787 305.157L83.1789 305.127C83.164 306.124 83.155 307.122 83.1518 308.119L85.1518 308.126C85.1549 307.136 85.1639 306.146 85.1787 305.157ZM85.1853 313.08L83.1856 313.113C83.2022 314.112 83.2247 315.112 83.2532 316.112L85.2524 316.055C85.2241 315.063 85.2018 314.071 85.1853 313.08ZM85.4422 321.001L83.4446 321.097C83.4927 322.094 83.5467 323.091 83.6067 324.089L85.6031 323.969C85.5436 322.979 85.49 321.99 85.4422 321.001ZM85.9501 328.917L83.9565 329.077C84.036 330.07 84.1215 331.063 84.2129 332.057L86.2045 331.873C86.1138 330.888 86.029 329.902 85.9501 328.917ZM86.707 336.8L84.7194 337.023C84.8306 338.016 84.9479 339.009 85.0711 340.002L87.0558 339.756C86.9336 338.771 86.8173 337.785 86.707 336.8ZM87.7139 344.663L85.7344 344.948C85.8767 345.935 86.025 346.922 86.1793 347.909L88.1553 347.6C88.0022 346.621 87.8551 345.642 87.7139 344.663ZM88.97 352.493L87.0005 352.841C87.174 353.823 87.3535 354.805 87.539 355.787L89.5042 355.415C89.3202 354.441 89.1421 353.467 88.97 352.493ZM90.471 360.268L88.5135 360.679C88.7183 361.656 88.9291 362.634 89.1459 363.611L91.0984 363.177C90.8833 362.208 90.6742 361.238 90.471 360.268ZM92.2196 368.004L90.276 368.476C90.511 369.444 90.7519 370.411 90.9988 371.378L92.9366 370.883C92.6917 369.924 92.4527 368.964 92.2196 368.004ZM94.2103 375.675L92.2826 376.208C92.549 377.172 92.8213 378.135 93.0997 379.098L95.021 378.542C94.7448 377.587 94.4746 376.632 94.2103 375.675ZM96.4404 383.276L94.5304 383.869C94.8264 384.822 95.1283 385.775 95.4361 386.726L97.339 386.111C97.0336 385.167 96.7341 384.222 96.4404 383.276ZM98.9135 390.819L97.023 391.472C97.3476 392.412 97.6779 393.351 98.0142 394.289L99.8969 393.614C99.5633 392.683 99.2355 391.752 98.9135 390.819ZM101.614 398.26L99.7444 398.972C100.1 399.907 100.462 400.841 100.83 401.773L102.69 401.04C102.326 400.115 101.967 399.188 101.614 398.26ZM104.549 405.625L102.702 406.394C103.085 407.314 103.474 408.232 103.869 409.15L105.706 408.359C105.315 407.449 104.929 406.537 104.549 405.625ZM426.348 72.6082L427.052 70.7363C426.117 70.3847 425.181 70.0385 424.242 69.6979L423.56 71.5779C424.491 71.9159 425.421 72.2593 426.348 72.6082ZM418.886 69.9335L419.531 68.0405C418.586 67.7182 417.639 67.4014 416.69 67.0902L416.067 68.9906C417.008 69.2995 417.948 69.6137 418.886 69.9335ZM411.344 67.493L411.93 65.5807C410.975 65.2882 410.019 65.0012 409.06 64.7198L408.497 66.6388C409.448 66.918 410.397 67.2027 411.344 67.493ZM403.729 65.2892L404.255 63.3596C403.292 63.097 402.326 62.8399 401.36 62.5886L400.856 64.5242C401.815 64.7736 402.773 65.0286 403.729 65.2892ZM396.05 63.3247L396.516 61.3796C395.544 61.1472 394.571 60.9205 393.597 60.6994L393.155 62.6499C394.121 62.8691 395.087 63.0941 396.05 63.3247ZM388.312 61.6009L388.717 59.6422C387.739 59.4404 386.76 59.2444 385.78 59.054L385.398 61.0173C386.371 61.2062 387.342 61.4007 388.312 61.6009ZM380.525 60.1205L380.868 58.15C379.884 57.9789 378.898 57.8134 377.912 57.6538L377.592 59.6281C378.571 59.7865 379.549 59.9506 380.525 60.1205ZM372.696 58.8849L372.977 56.9047C371.988 56.7645 370.999 56.6301 370.008 56.5015L369.75 58.4849C370.733 58.6125 371.715 58.7458 372.696 58.8849ZM364.83 57.8953L365.048 55.9073C364.056 55.7983 363.064 55.6951 362.07 55.5978L361.875 57.5883C362.861 57.6848 363.846 57.7872 364.83 57.8953ZM356.939 57.1537L357.095 55.1597C356.099 55.0819 355.101 55.0099 354.104 54.9437L353.971 56.9394C354.961 57.005 355.951 57.0764 356.939 57.1537ZM349.029 56.6607L349.122 54.6628C348.125 54.6164 347.127 54.5759 346.128 54.5413L346.059 56.5401C347.05 56.5744 348.04 56.6146 349.029 56.6607ZM338.14 54.3903C339.138 54.3934 340.136 54.4024 341.133 54.4173L341.103 56.4171C340.114 56.4023 339.124 56.3934 338.134 56.3903L338.14 54.3903ZM333.18 56.4237L333.147 54.424C332.147 54.4406 331.148 54.4631 330.148 54.4916L330.205 56.4908C331.197 56.4626 332.189 56.4402 333.18 56.4237ZM325.259 56.6807L325.162 54.683C324.166 54.7311 323.168 54.7852 322.171 54.8452L322.291 56.8416C323.281 56.782 324.27 56.7284 325.259 56.6807ZM317.343 57.1885L317.183 55.1949C316.19 55.2744 315.197 55.3599 314.203 55.4513L314.386 57.4429C315.372 57.3522 316.357 57.2674 317.343 57.1885ZM309.46 57.9454L309.237 55.9578C308.244 56.0691 307.251 56.1863 306.258 56.3095L306.504 58.2943C307.489 58.172 308.474 58.0557 309.46 57.9454ZM301.597 58.9523L301.312 56.9728C300.325 57.1151 299.338 57.2635 298.351 57.4177L298.66 59.3937C299.639 59.2407 300.618 59.0935 301.597 58.9523ZM293.767 60.2084L293.419 58.2389C292.437 58.4124 291.455 58.5919 290.473 58.7774L290.845 60.7426C291.818 60.5586 292.792 60.3805 293.767 60.2084ZM285.991 61.7094L285.581 59.7519C284.604 59.9567 283.626 60.1675 282.649 60.3843L283.083 62.3368C284.052 62.1217 285.021 61.9126 285.991 61.7094ZM278.256 63.458L277.784 61.5144C276.816 61.7494 275.849 61.9903 274.882 62.2372L275.376 64.1751C276.336 63.9302 277.296 63.6911 278.256 63.458ZM270.585 65.4488L270.052 63.521C269.088 63.7874 268.125 64.0598 267.162 64.3381L267.718 66.2594C268.673 65.9832 269.628 65.7131 270.585 65.4488ZM262.984 67.6788L262.391 65.7688C261.437 66.0648 260.485 66.3667 259.533 66.6745L260.149 68.5774C261.093 68.272 262.038 67.9725 262.984 67.6788ZM255.44 70.1519L254.788 68.2615C253.848 68.586 252.909 68.9164 251.971 69.2526L252.646 71.1353C253.576 70.8017 254.508 70.4739 255.44 70.1519ZM248 72.852L247.288 70.9828C246.353 71.3387 245.419 71.7004 244.486 72.0681L245.22 73.9288C246.145 73.564 247.072 73.2051 248 72.852ZM240.635 75.787L239.866 73.9408C238.946 74.3239 238.028 74.7129 237.11 75.1076L237.901 76.9448C238.811 76.5531 239.723 76.1671 240.635 75.787Z" fill="#1E1E1E"/>
</svg>
