<svg width="22" height="21" viewBox="0 0 22 21" fill="none" xmlns="http://www.w3.org/2000/svg">
<path d="M17.3813 11.7991C17.631 11.5494 17.6212 11.1535 17.3587 10.9157C17.0962 10.6775 16.6808 10.6875 16.4307 10.9372L11.6562 15.7316L11.6562 3.24316C11.6562 2.89816 11.3622 2.61816 10.9999 2.61816C10.6377 2.61816 10.3437 2.89816 10.3437 3.24316L10.3437 15.7116L5.56881 10.9372C5.31878 10.6872 4.90337 10.6775 4.64087 10.9157C4.50568 11.0385 4.43743 11.2032 4.43743 11.3682C4.43743 11.5232 4.49748 11.6782 4.61856 11.7991L10.072 17.2519C10.3197 17.4882 10.6492 17.6182 10.9999 17.6182C11.3507 17.6182 11.6801 17.4882 11.939 17.241L17.3813 11.7991Z" fill="white"/>
</svg>
