<svg width="22" height="21" viewBox="0 0 22 21" fill="none" xmlns="http://www.w3.org/2000/svg">
<path d="M17.3813 11.857C17.631 11.6073 17.6212 11.2113 17.3587 10.9735C17.0962 10.7354 16.6808 10.7454 16.4307 10.9951L11.6562 15.7895L11.6562 3.30103C11.6562 2.95603 11.3622 2.67603 10.9999 2.67603C10.6377 2.67603 10.3437 2.95603 10.3437 3.30103L10.3437 15.7695L5.56881 10.9951C5.31878 10.7451 4.90337 10.7354 4.64087 10.9735C4.50568 11.0963 4.43743 11.261 4.43743 11.426C4.43743 11.581 4.49748 11.736 4.61856 11.857L10.072 17.3098C10.3197 17.546 10.6492 17.676 10.9999 17.676C11.3507 17.676 11.6801 17.546 11.939 17.2988L17.3813 11.857Z" fill="#49250B"/>
</svg>
