<svg width="20" height="21" viewBox="0 0 20 21" fill="none" xmlns="http://www.w3.org/2000/svg">
<path d="M11.6809 4.11845C11.4313 3.86875 11.0353 3.87859 10.7975 4.14109C10.5594 4.40359 10.5694 4.819 10.8191 5.06903L15.6134 9.84357H3.125C2.78 9.84357 2.5 10.1376 2.5 10.4998C2.5 10.8621 2.78 11.1561 3.125 11.1561H15.5934L10.8191 15.9309C10.5691 16.181 10.5594 16.5964 10.7975 16.8589C10.9203 16.9941 11.085 17.0623 11.25 17.0623C11.405 17.0623 11.56 17.0023 11.6809 16.8812L17.1337 11.4278C17.37 11.18 17.5 10.8506 17.5 10.4998C17.5 10.1491 17.37 9.81962 17.1228 9.56073L11.6809 4.11845Z" fill="white"/>
</svg>
